<?xml version="1.0" encoding="UTF-8" standalone="no"?>
<!-- Created with Inkscape (http://www.inkscape.org/) -->

<svg
   width="288.63773mm"
   height="174.62498mm"
   viewBox="0 0 288.63773 174.62498"
   version="1.1"
   id="svg1"
   xml:space="preserve"
   inkscape:version="1.4 (e7c3feb100, 2024-10-09)"
   sodipodi:docname="overlapping_measurement_planes.svg"
   inkscape:export-filename="overlapping_measurement_planes.png"
   inkscape:export-xdpi="96"
   inkscape:export-ydpi="96"
   xmlns:inkscape="http://www.inkscape.org/namespaces/inkscape"
   xmlns:sodipodi="http://sodipodi.sourceforge.net/DTD/sodipodi-0.dtd"
   xmlns="http://www.w3.org/2000/svg"
   xmlns:svg="http://www.w3.org/2000/svg"><sodipodi:namedview
     id="namedview1"
     pagecolor="#ffffff"
     bordercolor="#000000"
     borderopacity="0.25"
     inkscape:showpageshadow="2"
     inkscape:pageopacity="0.0"
     inkscape:pagecheckerboard="0"
     inkscape:deskcolor="#d1d1d1"
     inkscape:document-units="mm"
     showguides="false"
     inkscape:zoom="0.74457511"
     inkscape:cx="528.48933"
     inkscape:cy="494.24161"
     inkscape:window-width="1290"
     inkscape:window-height="991"
     inkscape:window-x="26"
     inkscape:window-y="23"
     inkscape:window-maximized="0"
     inkscape:current-layer="layer1"><sodipodi:guide
       position="94.416309,152.15701"
       orientation="0,-1"
       id="guide3"
       inkscape:locked="false" /><sodipodi:guide
       position="145.17855,78.05817"
       orientation="0,-1"
       id="guide4"
       inkscape:locked="false" /><sodipodi:guide
       position="96.819865,77.921723"
       orientation="1,0"
       id="guide5"
       inkscape:locked="false" /><sodipodi:guide
       position="174.36894,168.16364"
       orientation="0,-1"
       id="guide6"
       inkscape:locked="false" /><sodipodi:guide
       position="185.83702,23.436602"
       orientation="0,-1"
       id="guide7"
       inkscape:locked="false" /></sodipodi:namedview><defs
     id="defs1" /><g
     inkscape:label="Layer 1"
     inkscape:groupmode="layer"
     id="layer1"
     transform="translate(43.554901,-135.53191)"><path
       style="fill:#000000"
       d="m 111.75552,307.11417 v -3.04271 l 0.7276,0.0307 c 0.44765,0.0189 0.54945,0.0772 0.26459,0.15169 -0.40337,0.10541 -0.46302,0.47393 -0.46302,2.86032 0,2.3864 0.0597,2.75492 0.46302,2.86033 0.28486,0.0744 0.18306,0.13281 -0.26459,0.15169 l -0.7276,0.0307 z m 10.12031,2.86033 c 0.40337,-0.10541 0.46302,-0.47393 0.46302,-2.86033 0,-2.38639 -0.0597,-2.75491 -0.46302,-2.86032 -0.28486,-0.0744 -0.18306,-0.13281 0.26459,-0.15169 l 0.7276,-0.0307 v 3.04271 3.04271 l -0.7276,-0.0307 c -0.44765,-0.0189 -0.54945,-0.0772 -0.26459,-0.15169 z m -16.22374,-1.6444 c 0.30095,-0.42265 0.54718,-0.91028 0.54718,-1.08364 0,-0.17335 -0.24623,-0.66099 -0.54718,-1.08363 -0.69577,-0.97712 -0.2128,-1.01282 0.5525,-0.0409 l 0.57288,0.72761 0.58074,-0.72761 c 0.7737,-0.96938 1.14194,-0.9357 0.44658,0.0409 -0.30095,0.42264 -0.54719,0.91028 -0.54719,1.08363 0,0.17336 0.24624,0.66099 0.54719,1.08364 0.69609,0.97757 0.21301,1.01514 -0.52512,0.0408 l -0.55123,-0.7276 -0.55124,0.7276 c -0.73813,0.9743 -1.2212,0.93673 -0.52511,-0.0408 z m 9.06545,-1.08364 c -0.008,-1.0914 0.0721,-1.76447 0.17789,-1.4957 0.17461,0.44372 0.22456,0.44981 0.54297,0.0661 0.42708,-0.5146 1.20675,-0.54734 1.65319,-0.0694 0.27438,0.29373 0.45323,0.28261 1.06369,-0.0661 1.2003,-0.68573 1.66207,-0.18382 1.70868,1.85722 l 0.0386,1.69228 -0.20539,-1.5523 c -0.21083,-1.59342 -0.56513,-2.08715 -1.30312,-1.81596 -0.65259,0.23981 -0.80932,0.62102 -0.81369,1.9792 -0.002,0.69122 -0.12312,1.25677 -0.26864,1.25677 -0.14552,0 -0.26458,-0.65066 -0.26458,-1.4459 0,-1.13935 -0.10444,-1.5018 -0.49262,-1.70954 -0.80516,-0.43091 -1.37844,0.22477 -1.61345,1.84535 l -0.20917,1.44238 z m -128.109936,-8.20208 c -0.395476,-0.39547 -0.529167,-0.88194 -0.529167,-1.9255 0,-1.72234 0.524605,-2.57242 1.5875,-2.57242 1.062895,0 1.5875,0.85008 1.5875,2.57242 0,1.52663 -0.600186,2.45467 -1.5875,2.45467 -0.291042,0 -0.767292,-0.23813 -1.058333,-0.52917 z m 1.700892,-0.15119 c 0.569543,-0.56954 0.635407,-2.64331 0.114946,-3.61912 -0.328904,-0.61667 -1.200575,-0.58911 -1.541946,0.0487 -0.42955,0.80262 -0.338659,3.08983 0.141881,3.57037 0.228676,0.22868 0.517828,0.41577 0.64256,0.41577 0.124732,0 0.413884,-0.18709 0.642559,-0.41577 z m 2.5324406,0.28348 c 0,-0.21828 0.119063,-0.39687 0.264583,-0.39687 0.145521,0 0.264584,0.17859 0.264584,0.39687 0,0.21828 -0.119063,0.39688 -0.264584,0.39688 -0.14552,0 -0.264583,-0.1786 -0.264583,-0.39688 z m 1.852083,0.23718 c 0,-0.0878 0.6007784,-0.87869 1.3350626,-1.75746 0.7342841,-0.87878 1.299831,-1.77642 1.2567709,-1.99476 -0.141949,-0.71978 -0.9108244,-1.00189 -1.8078111,-0.66332 -0.6278668,0.237 -0.7930614,0.2357 -0.7137714,-0.006 0.166812,-0.50763 2.1786507,-0.5408 2.6753519,-0.0441 0.686798,0.6868 0.5105107,1.30249 -0.7857461,2.74424 l -1.2151438,1.35153 h 1.2151438 c 0.6683291,0 1.2151438,0.11906 1.2151438,0.26458 0,0.14699 -0.7055556,0.26459 -1.5875001,0.26459 -0.873125,0 -1.5875005,-0.0719 -1.5875005,-0.1597 z m 41.4294614,-0.24077 c -0.357086,-0.27021 -0.536419,-0.79579 -0.606497,-1.77753 -0.127791,-1.79022 0.321883,-2.68973 1.397633,-2.79578 1.154294,-0.11379 1.756164,0.65894 1.780713,2.28623 0.03359,2.22629 -1.201126,3.32429 -2.571849,2.28708 z m 1.532313,-0.20413 c 0.967618,-0.70754 0.7718,-3.6772 -0.268804,-4.07651 -1.147383,-0.4403 -1.924575,2.51716 -1.00609,3.82849 0.476726,0.68062 0.639876,0.71236 1.274894,0.24802 z m 2.546562,0.20772 c 0,-0.21828 0.119062,-0.39687 0.264583,-0.39687 0.145521,0 0.264583,0.17859 0.264583,0.39687 0,0.21828 -0.119062,0.39688 -0.264583,0.39688 -0.145521,0 -0.264583,-0.1786 -0.264583,-0.39688 z m 2.469563,-0.29457 c -0.613591,-0.93646 -0.575827,-3.12159 0.06621,-3.83103 0.670329,-0.74071 1.969918,-0.58609 2.430318,0.28914 0.501495,0.95336 0.281948,3.41741 -0.345361,3.87611 -0.77535,0.56695 -1.649705,0.43111 -2.151165,-0.33422 z m 1.881059,-0.16117 c 1.134155,-1.61924 -0.223869,-4.9786 -1.426708,-3.52927 -0.514675,0.62014 -0.405106,3.37006 0.150465,3.7763 0.63645,0.46539 0.799325,0.43386 1.276243,-0.24703 z m 42.160316,0.57267 c -1.018926,-0.59401 -1.151775,-3.49693 -0.199473,-4.35875 0.678404,-0.61395 1.885895,-0.40213 2.310779,0.40536 0.501601,0.9533 0.282115,3.41736 -0.345264,3.87611 -0.57322,0.41915 -1.137276,0.44383 -1.766042,0.0773 z m 1.495936,-0.57267 c 1.134155,-1.61924 -0.223869,-4.9786 -1.426708,-3.52927 -0.514675,0.62014 -0.405107,3.37006 0.150465,3.7763 0.63645,0.46539 0.799324,0.43386 1.276243,-0.24703 z m 2.263961,0.45574 c 0,-0.21828 0.178594,-0.39687 0.396875,-0.39687 0.218281,0 0.396875,0.17859 0.396875,0.39687 0,0.21828 -0.178594,0.39688 -0.396875,0.39688 -0.218281,0 -0.396875,-0.1786 -0.396875,-0.39688 z m 2.116667,0.16091 c 0,-0.12978 0.535781,-0.83189 1.190625,-1.56023 1.380822,-1.53581 1.586033,-2.5924 0.55381,-2.85147 -0.350248,-0.0879 -0.899805,-0.0191 -1.221238,0.15294 -0.472417,0.25283 -0.561938,0.24447 -0.467101,-0.0436 0.06661,-0.20235 0.5878,-0.39127 1.205669,-0.43702 0.915099,-0.0678 1.156995,0.0242 1.519595,0.57757 0.509847,0.77812 0.330227,1.23492 -1.114193,2.83373 l -0.934992,1.03492 h 1.221412 c 0.671777,0 1.22141,0.11906 1.22141,0.26458 0,0.14699 -0.705553,0.26459 -1.587497,0.26459 -0.873125,0 -1.5875,-0.10619 -1.5875,-0.23597 z m 44.327182,-0.12126 c -0.62738,-0.45875 -0.84686,-2.92281 -0.34526,-3.87611 0.42488,-0.80749 1.63237,-1.01931 2.31078,-0.40536 0.60784,0.55009 0.83721,1.97954 0.5086,3.16967 -0.37261,1.34946 -1.47291,1.8439 -2.47412,1.1118 z m 1.54635,-0.24836 c 0.55557,-0.40624 0.66514,-3.15616 0.15047,-3.7763 -0.77807,-0.93752 -1.83859,0.14016 -1.83859,1.86835 0,0.9997 0.56813,2.24895 1.02277,2.24895 0.10945,0 0.40886,-0.15345 0.66535,-0.341 z m 2.54521,0.20871 c 0,-0.21828 0.11907,-0.39687 0.26459,-0.39687 0.14552,0 0.26458,0.17859 0.26458,0.39687 0,0.21828 -0.11906,0.39688 -0.26458,0.39688 -0.14552,0 -0.26459,-0.1786 -0.26459,-0.39688 z m 4.23334,-0.26458 c 0,-0.60756 -0.097,-0.66146 -1.19063,-0.66146 -0.7327,0 -1.19062,-0.11906 -1.19062,-0.30957 0,-0.63034 1.99098,-3.39 2.44739,-3.39228 0.39311,-0.002 0.46302,0.25404 0.46302,1.69543 0,1.11063 0.11438,1.74389 0.33073,1.83119 0.26459,0.10676 0.26459,0.13763 0,0.15434 -0.1819,0.0115 -0.33073,0.31855 -0.33073,0.68235 0,0.3638 -0.11906,0.66146 -0.26458,0.66146 -0.14552,0 -0.26458,-0.29766 -0.26458,-0.66146 z m 0,-2.57496 v -1.64892 l -0.61896,0.92131 c -0.34042,0.50673 -0.83037,1.24874 -1.08876,1.64892 l -0.46981,0.72761 h 1.08877 1.08876 z m 41.89248,2.54497 c -0.61359,-0.93646 -0.57583,-3.12159 0.0662,-3.83103 0.67033,-0.74071 1.96992,-0.58609 2.43032,0.28914 0.50755,0.96488 0.2851,3.3462 -0.35805,3.83287 -0.7885,0.59664 -1.6321,0.48186 -2.13848,-0.29098 z m 1.88106,-0.16117 c 1.13415,-1.61924 -0.22387,-4.9786 -1.42671,-3.52927 -0.51467,0.62014 -0.40511,3.37006 0.15047,3.7763 0.63645,0.46539 0.79932,0.43386 1.27624,-0.24703 z m 2.26396,0.47779 c 0,-0.23041 0.18852,-0.41892 0.41892,-0.41892 0.23041,0 0.3718,0.14138 0.3142,0.31419 -0.16354,0.4906 -0.73312,0.57197 -0.73312,0.10473 z m 2.80029,-0.0256 c -0.35235,-0.26662 -0.54187,-0.80881 -0.62132,-1.77753 -0.14859,-1.81172 0.55824,-2.84909 1.94128,-2.84909 0.49876,0 0.90683,0.10256 0.90683,0.2279 0,0.12534 -0.286,0.17322 -0.63556,0.10639 -0.41607,-0.0795 -0.83003,0.073 -1.19867,0.44161 -0.48521,0.48522 -0.53949,0.75415 -0.3924,1.94413 0.19267,1.55866 0.70253,2.16876 1.46943,1.75833 0.33029,-0.17676 0.49262,-0.5564 0.49262,-1.15207 0,-0.96689 -0.49352,-1.34057 -1.39332,-1.05498 -0.34776,0.11037 -0.4639,0.0677 -0.34399,-0.12629 0.26837,-0.43424 1.62105,-0.35494 2.01359,0.11804 0.1876,0.22604 0.34108,0.77867 0.34108,1.22808 0,1.35271 -1.44936,1.9907 -2.57957,1.13548 z m 43.64357,0.0432 c -0.62738,-0.45875 -0.84687,-2.92281 -0.34527,-3.87611 0.42489,-0.80749 1.63238,-1.01931 2.31078,-0.40536 0.60785,0.55009 0.83721,1.97954 0.5086,3.16967 -0.3726,1.34946 -1.4729,1.8439 -2.47411,1.1118 z m 1.54635,-0.24836 c 0.35216,-0.2575 0.46634,-0.71495 0.46634,-1.86834 0,-2.10274 -0.62592,-2.79612 -1.67061,-1.85069 -0.61336,0.55508 -0.65653,2.63743 -0.072,3.472 0.47692,0.68089 0.6398,0.71242 1.27625,0.24703 z m 2.54521,0.20871 c 0,-0.21828 0.11906,-0.39687 0.26458,-0.39687 0.14552,0 0.26459,0.17859 0.26459,0.39687 0,0.21828 -0.11907,0.39688 -0.26459,0.39688 -0.14552,0 -0.26458,-0.1786 -0.26458,-0.39688 z m 2.38125,-0.13229 c -0.67325,-0.67324 -0.66944,-1.17162 0.0138,-1.80817 0.46415,-0.43242 0.48336,-0.52874 0.1323,-0.66346 -0.48639,-0.18664 -0.54478,-1.25721 -0.0932,-1.70879 0.3389,-0.3389 1.48466,-0.42158 2.1744,-0.1569 0.55107,0.21147 0.55712,1.6549 0.008,1.86569 -0.35106,0.13472 -0.33186,0.23104 0.13229,0.66346 0.67214,0.62619 0.69389,1.325 0.0591,1.89945 -0.65631,0.59396 -1.78373,0.55155 -2.42656,-0.0913 z m 1.86948,-0.009 c 0.95415,-0.51065 0.46342,-1.84277 -0.67886,-1.84277 -1.08853,0 -1.5227,0.95304 -0.77485,1.70089 0.48756,0.48756 0.75841,0.51399 1.45371,0.14188 z m 0.22762,-2.86456 c 0.37195,-0.69498 -0.21898,-1.43636 -1.05089,-1.31844 -0.65261,0.0925 -0.95177,0.72145 -0.68002,1.42964 0.21122,0.55042 1.41833,0.47287 1.73091,-0.1112 z m -263.042419,1.09264 c 0.618463,-0.0557 1.630495,-0.0557 2.248958,0 0.618464,0.0557 0.112448,0.10128 -1.124479,0.10128 -1.236927,0 -1.742943,-0.0456 -1.124479,-0.10128 z m -8.253227,-5.95056 c -0.24091,-0.34394 -0.411878,-1.14321 -0.411878,-1.9255 0,-1.66107 0.538406,-2.51354 1.5875,-2.51354 1.049095,0 1.5875,0.85247 1.5875,2.51354 0,1.66106 -0.538405,2.51354 -1.5875,2.51354 -0.489295,0 -0.911751,-0.21131 -1.175622,-0.58804 z m 1.818182,-0.0923 c 0.480541,-0.48054 0.571431,-2.76775 0.141881,-3.57037 -0.15064,-0.28147 -0.503639,-0.51177 -0.784441,-0.51177 -0.704553,0 -1.058333,0.78387 -1.058333,2.34496 0,1.24486 0.446397,2.15296 1.058333,2.15296 0.124733,0 0.413884,-0.1871 0.64256,-0.41578 z m 2.532441,0.28349 c 0,-0.21829 0.119062,-0.39688 0.264583,-0.39688 0.145521,0 0.264583,0.17859 0.264583,0.39688 0,0.21828 -0.119062,0.39687 -0.264583,0.39687 -0.145521,0 -0.264583,-0.17859 -0.264583,-0.39687 z m 1.852083,0.18419 c 0,-0.11698 0.426877,-0.62299 0.948616,-1.12448 0.92829,-0.89226 1.697217,-2.07434 1.697217,-2.60914 0,-0.51526 -0.962245,-0.80682 -1.83586,-0.55627 -0.626132,0.17957 -0.818125,0.16016 -0.740947,-0.0749 0.172491,-0.52541 2.031426,-0.54628 2.602762,-0.0292 0.763289,0.69077 0.618099,1.24671 -0.711932,2.72602 l -1.215144,1.35153 h 1.215144 c 0.668329,0 1.215144,0.11907 1.215144,0.26459 0,0.14699 -0.705556,0.26458 -1.5875,0.26458 -0.873125,0 -1.5875,-0.0957 -1.5875,-0.21268 z m 8.768796,-1.04409 -0.03755,-1.12448 h -1.058333 c -0.582084,0 -1.058334,-0.11906 -1.058334,-0.26458 0,-0.14552 0.477428,-0.26459 1.06095,-0.26459 h 1.06095 l -0.06876,-12.36927 -0.06876,-12.36927 -1.058334,-0.16089 -1.058333,-0.16089 1.124479,-0.0375 1.124479,-0.0375 v -12.42021 -12.4202 l -1.124479,-0.10128 -1.124479,-0.10128 1.124479,-0.0462 1.124479,-0.0462 v -12.43542 -12.43541 l -1.124479,-0.0376 -1.124479,-0.0376 1.058333,-0.16089 1.058334,-0.16089 v -12.43542 -12.43541 l -1.058334,-0.1609 -1.058333,-0.16089 1.124479,-0.0375 1.124479,-0.0376 V 175.7489 163.31349 l -1.124479,-0.0375 -1.124479,-0.0375 1.058333,-0.1609 1.058334,-0.16089 0.06876,-12.36927 0.06876,-12.36927 h -1.06095 c -0.583522,0 -1.06095,-0.11906 -1.06095,-0.26458 0,-0.17602 42.597919,-0.26459 127.264591,-0.26459 h 127.26459 v 76.99376 c 0,51.15277 -0.0888,76.99375 -0.26459,76.99375 -0.14552,0 -0.26458,-0.47625 -0.26458,-1.05834 v -1.05833 h -24.98791 -24.98792 l -0.10128,1.12448 -0.10128,1.12448 -0.0462,-1.12448 -0.0462,-1.12448 h -25.00312 -25.00313 v 1.05833 c 0,0.58209 -0.11906,1.05834 -0.26458,1.05834 -0.14552,0 -0.26459,-0.47625 -0.26459,-1.05834 v -1.05833 H 114.01969 89.031784 l -0.10128,1.12448 -0.10128,1.12448 -0.04622,-1.12448 -0.04623,-1.12448 H 63.733648 38.730522 v 1.05833 c 0,0.58209 -0.119062,1.05834 -0.264583,1.05834 -0.145521,0 -0.264583,-0.47686 -0.264583,-1.05969 v -1.05968 l -24.936981,0.0675 -24.93698,0.0675 -0.160891,1.05834 -0.160892,1.05833 z M 239.81386,213.58396 V 138.17771 H 114.00448 -11.804896 v 75.40625 75.40625 H 114.00448 239.81386 Z m -273.050007,76.2 c 0,-0.15434 0.881944,-0.26458 2.116667,-0.26458 1.234722,0 2.116666,0.11024 2.116666,0.26458 0,0.15434 -0.881944,0.26459 -2.116666,0.26459 -1.234723,0 -2.116667,-0.11025 -2.116667,-0.26459 z m 6.491772,-23.37597 c -0.341568,-0.24976 -0.525749,-0.80598 -0.612238,-1.84892 -0.15528,-1.87248 0.358736,-2.82094 1.528799,-2.82094 1.161437,0 1.68392,0.95039 1.531688,2.78611 -0.163592,1.97271 -1.217554,2.78365 -2.448249,1.88375 z m 1.49104,-0.34524 c 0.343619,-0.31097 0.483855,-0.81446 0.483855,-1.73719 0,-1.54022 -0.356579,-2.32285 -1.058334,-2.32285 -0.280801,0 -0.6338,0.2303 -0.784441,0.51178 -0.43528,0.81332 -0.335201,2.95069 0.16399,3.50229 0.535457,0.59167 0.589635,0.59375 1.19493,0.046 z m 2.600522,0.1733 c 0,-0.14552 0.119062,-0.26459 0.264583,-0.26459 0.145521,0 0.264583,0.11907 0.264583,0.26459 0,0.14552 -0.119062,0.26458 -0.264583,0.26458 -0.145521,0 -0.264583,-0.11906 -0.264583,-0.26458 z m 2.855043,0.0764 c 0.577353,-0.11057 0.602439,-0.21234 0.529167,-2.14678 -0.0755,-1.99317 -0.08914,-2.02926 -0.738377,-1.95272 -0.523061,0.0617 -0.57842,0.021 -0.264583,-0.19439 0.218281,-0.1498 0.664765,-0.27419 0.992187,-0.27642 0.570605,-0.004 0.595313,0.0885 0.595313,2.22651 0,2.1028 0.0341,2.23712 0.595312,2.34521 0.327422,0.0631 -0.05953,0.11467 -0.859896,0.11467 -0.800364,0 -1.18247,-0.0522 -0.849123,-0.11608 z m -12.44619,-1.85767 c 0.618464,-0.0557 1.630495,-0.0557 2.248959,0 0.618463,0.0557 0.112448,0.10128 -1.124479,0.10128 -1.236928,0 -1.742943,-0.0456 -1.12448,-0.10128 z m 5.216959,-23.727 c -0.281041,-0.42892 -0.391206,-1.09082 -0.336828,-2.02373 0.06733,-1.15505 0.202197,-1.47668 0.808411,-1.92781 l 0.727604,-0.54147 0.727605,0.54147 c 0.606213,0.45113 0.741085,0.77276 0.808411,1.92781 0.102292,1.75492 -0.420775,2.66112 -1.536016,2.66112 -0.533822,0 -0.913929,-0.20203 -1.199187,-0.63739 z m 1.983628,-0.13896 c 0.470907,-0.8799 0.330437,-2.80245 -0.255274,-3.49382 l -0.529167,-0.62462 -0.529166,0.62462 c -0.356507,0.42082 -0.529167,1.00923 -0.529167,1.80334 0,1.42666 0.372723,2.20225 1.058333,2.20225 0.280802,0 0.633801,-0.2303 0.784441,-0.51177 z m 2.39056,0.51177 c 0,-0.14552 0.119062,-0.26458 0.264583,-0.26458 0.145521,0 0.264583,0.11906 0.264583,0.26458 0,0.14552 -0.119062,0.26458 -0.264583,0.26458 -0.145521,0 -0.264583,-0.11906 -0.264583,-0.26458 z m 2.347501,-0.17296 c -0.217837,-0.26247 -0.363126,-1.06579 -0.363126,-2.00775 0,-1.33098 0.09516,-1.64727 0.624624,-2.076 0.343543,-0.27819 0.776837,-0.50579 0.962876,-0.50579 0.186038,0 0.619332,0.2276 0.962876,0.50579 0.534281,0.43263 0.624624,0.74186 0.624624,2.13799 0,1.31034 -0.101279,1.70627 -0.513591,2.00776 -0.692016,0.50601 -1.852866,0.4747 -2.298283,-0.062 z m 2.236129,-0.95898 c 0.515465,-2.19302 -0.531568,-3.97846 -1.66715,-2.84287 -0.592539,0.59253 -0.718495,2.13542 -0.270519,3.31369 0.210374,0.55332 0.412303,0.67906 0.983709,0.61254 0.58906,-0.0686 0.761458,-0.26437 0.95396,-1.08336 z m -23.898215,-17.59792 c 0,-0.10777 0.595313,-0.40737 1.322917,-0.66579 0.727604,-0.25843 1.322917,-0.59063 1.322917,-0.73823 0,-0.1476 -0.598117,-0.51693 -1.329149,-0.82073 -0.731031,-0.30381 -1.269298,-0.61222 -1.196148,-0.68537 0.07315,-0.0731 1.207049,0.31739 2.519774,0.86787 1.763376,0.73946 2.386773,1.12648 2.386773,1.48176 0,0.41961 -0.08237,0.39851 -0.646459,-0.16558 l -0.646459,-0.64646 -1.27177,0.55163 c -2.060857,0.89388 -2.462396,1.02775 -2.462396,0.8209 z m 15.081251,-6.67014 c -0.400884,-0.40088 -0.529167,-0.88195 -0.529167,-1.98438 0,-1.58772 0.584729,-2.51354 1.5875,-2.51354 1.002772,0 1.5875,0.92582 1.5875,2.51354 0,1.58772 -0.584728,2.51355 -1.5875,2.51355 -0.291041,0 -0.767291,-0.23813 -1.058333,-0.52917 z m 1.842774,-0.24719 c 0.150641,-0.28148 0.273893,-1.06321 0.273893,-1.73719 0,-1.47059 -0.366287,-2.24895 -1.058334,-2.24895 -0.692046,0 -1.058333,0.77836 -1.058333,2.24895 0,1.4706 0.366287,2.24896 1.058333,2.24896 0.280802,0 0.633801,-0.2303 0.784441,-0.51177 z m 2.39056,0.37948 c 0,-0.21828 0.119062,-0.39687 0.264583,-0.39687 0.145521,0 0.264583,0.17859 0.264583,0.39687 0,0.21828 -0.119062,0.39688 -0.264583,0.39688 -0.145521,0 -0.264583,-0.1786 -0.264583,-0.39688 z m 3.439583,-2.07998 v -2.21226 l -0.727604,0.0907 c -0.726047,0.0905 -0.726188,0.0902 -0.06615,-0.14261 1.304373,-0.46004 1.322917,-0.43067 1.322917,2.09521 0,1.41111 -0.107794,2.38125 -0.264584,2.38125 -0.155293,0 -0.264583,-0.91381 -0.264583,-2.21227 z m -24.310976,1.35238 c 0.0231,-0.44799 0.06064,-0.48073 0.151692,-0.1323 0.105411,0.40337 0.473929,0.46303 2.860325,0.46303 2.386396,0 2.754914,-0.0597 2.860324,-0.46303 0.09106,-0.34843 0.128596,-0.31569 0.151692,0.1323 0.03014,0.58463 -0.02391,0.59531 -3.012016,0.59531 -2.988107,0 -3.042158,-0.0107 -3.012017,-0.59531 z m 1.821392,-2.29695 c 0.218281,-0.12669 1.11125,-0.13868 1.984375,-0.0267 l 1.5875,0.20369 -1.984375,0.0267 c -1.241673,0.0167 -1.835835,-0.0596 -1.5875,-0.20369 z m -0.242691,-1.03558 c -0.188084,-0.35144 -0.149418,-0.64801 0.137985,-1.05834 0.341209,-0.48714 0.637669,-0.56502 2.037938,-0.53538 l 1.638643,0.0347 -1.483666,0.19099 c -1.849367,0.23805 -2.169203,0.43239 -2.017524,1.22585 0.144526,0.75604 0.04043,0.80327 -0.313376,0.14219 z m -0.01164,-2.40299 c -0.624182,-1.1663 0.271154,-1.71276 2.520818,-1.53855 l 1.305383,0.10108 -1.488957,0.0477 c -1.619246,0.0519 -2.240297,0.47563 -2.006624,1.3692 0.175682,0.67181 0.023,0.68131 -0.33062,0.0206 z m -1.567066,-3.78948 -0.03069,-0.72761 h 3.042709 3.042708 l -0.03069,0.72761 c -0.01888,0.44764 -0.07725,0.54945 -0.151692,0.26458 -0.10541,-0.40337 -0.473928,-0.46302 -2.860324,-0.46302 -2.386396,0 -2.754914,0.0596 -2.860325,0.46302 -0.07444,0.28487 -0.132809,0.18306 -0.151692,-0.26458 z m 17.034934,-14.8021 c -0.792297,-0.44929 -0.917556,-0.7488 -0.92199,-2.20466 -0.005,-1.6535 0.53374,-2.50626 1.583448,-2.50626 1.058457,0 1.5875,0.85087 1.5875,2.5532 0,1.17261 -0.103539,1.45858 -0.697139,1.92551 -0.80043,0.62962 -0.84044,0.6356 -1.551819,0.23221 z m 1.235942,-0.38627 c 0.343619,-0.31097 0.483855,-0.81446 0.483855,-1.73718 0,-1.54023 -0.356579,-2.32285 -1.058334,-2.32285 -0.280801,0 -0.6338,0.2303 -0.784441,0.51177 -0.43528,0.81333 -0.335201,2.95069 0.16399,3.50229 0.535457,0.59167 0.589635,0.59376 1.19493,0.046 z m 2.600522,0.1733 c 0,-0.14552 0.119062,-0.26458 0.264583,-0.26458 0.145521,0 0.264583,0.11906 0.264583,0.26458 0,0.14552 -0.119062,0.26459 -0.264583,0.26459 -0.145521,0 -0.264583,-0.11907 -0.264583,-0.26459 z m 3.152101,-1.34605 c 0.740198,-0.88585 1.345815,-1.76424 1.345815,-1.95198 0,-0.63201 -0.764357,-1.00931 -1.72796,-0.85294 -0.5513,0.0895 -0.867115,0.0496 -0.775895,-0.098 0.251833,-0.40748 2.164878,-0.28551 2.617248,0.16686 0.668168,0.66817 0.492832,1.26091 -0.783061,2.64725 l -1.198835,1.3026 1.264981,0.15687 c 1.255346,0.15568 1.252212,0.15719 -0.411564,0.19844 l -1.676545,0.0416 z m -7.502724,-24.11282 c -0.5122,-0.73127 -0.54511,-3.09737 -0.05245,-3.77111 0.2239,-0.30621 0.686955,-0.49155 1.228075,-0.49155 1.145918,0 1.5875,0.6478 1.5875,2.32885 0,1.6697 -0.536424,2.52185 -1.5875,2.52185 -0.489295,0 -0.911751,-0.21131 -1.175622,-0.58804 z m 1.960063,-0.18832 c 0.489287,-0.91424 0.337166,-3.05312 -0.255274,-3.58927 -0.510648,-0.46213 -0.547685,-0.46213 -1.058333,0 -0.592441,0.53615 -0.744561,2.67503 -0.255275,3.58927 0.35238,0.65843 1.216503,0.65843 1.568882,0 z m 2.39056,0.51177 c 0,-0.14552 0.119062,-0.26458 0.264583,-0.26458 0.145521,0 0.264583,0.11906 0.264583,0.26458 0,0.14553 -0.119062,0.26459 -0.264583,0.26459 -0.145521,0 -0.264583,-0.11906 -0.264583,-0.26459 z m 1.99993,0.0252 c -0.08353,-0.13515 0.288927,-0.18081 0.855258,-0.10485 1.154129,0.1548 1.735559,-0.31664 1.596893,-1.29481 -0.0646,-0.45572 -0.286404,-0.63259 -0.877472,-0.69972 l -0.791016,-0.0898 0.857162,-0.36041 c 1.555394,-0.65399 0.775157,-2.19712 -0.923347,-1.82616 -0.563634,0.1231 -0.641318,0.0949 -0.336158,-0.12184 0.567233,-0.40295 1.376999,-0.35501 2.057795,0.12184 0.704563,0.4935 0.764751,1.30792 0.125017,1.69164 -0.440972,0.26451 -0.440972,0.29096 0,0.55547 0.640742,0.38433 0.609133,1.74212 -0.04875,2.09421 -0.630532,0.33745 -2.313873,0.36052 -2.51538,0.0345 z m -6.350553,-25.48404 c -0.24091,-0.34394 -0.411878,-1.14321 -0.411878,-1.9255 0,-1.66107 0.538406,-2.51354 1.5875,-2.51354 1.049095,0 1.5875,0.85247 1.5875,2.51354 0,1.66106 -0.538405,2.51354 -1.5875,2.51354 -0.489295,0 -0.911751,-0.21131 -1.175622,-0.58804 z m 1.818182,-0.0923 c 0.480541,-0.48054 0.571431,-2.76775 0.141881,-3.57037 -0.352379,-0.65842 -1.216502,-0.65842 -1.568882,0 -0.429549,0.80262 -0.338659,3.08983 0.141882,3.57037 0.228675,0.22868 0.517827,0.41578 0.642559,0.41578 0.124733,0 0.413884,-0.1871 0.64256,-0.41578 z m 2.532441,0.28349 c 0,-0.21829 0.119062,-0.39688 0.264583,-0.39688 0.145521,0 0.264583,0.17859 0.264583,0.39688 0,0.21828 -0.119062,0.39687 -0.264583,0.39687 -0.145521,0 -0.264583,-0.17859 -0.264583,-0.39687 z m 3.96875,-0.26459 c 0,-0.59531 -0.105834,-0.66146 -1.058334,-0.66146 -0.604305,0 -1.058333,-0.12703 -1.058333,-0.29611 0,-0.56472 1.892286,-3.40805 2.268115,-3.40805 0.288495,0 0.377718,0.40624 0.377718,1.71979 0,1.45844 0.07036,1.72101 0.463021,1.72784 0.440972,0.008 0.440972,0.0209 0,0.27773 -0.254661,0.14832 -0.463021,0.50189 -0.463021,0.7857 0,0.28381 -0.119062,0.51602 -0.264583,0.51602 -0.145521,0 -0.264583,-0.29766 -0.264583,-0.66146 z m 0,-2.44012 c 0,-1.6615 0.02567,-1.67183 -1.297014,0.52189 l -0.598228,0.99219 h 0.947621 0.947621 z"
       id="path2"
       sodipodi:nodetypes="ccscsssccsssscccssssssscssssscsscssscscsscssssccsssssscssssccssssscssscsscsssccssssssssssssssssssssssssssssssssssssssssssssssscssssssssssssssssssssssssssssssccssccccsssssssssssssssssssssssssssssssssssssssssssscsssssssccsssssssssssssssssssssssssssssssssssscsssssccssscccccccccccccccccccccccccccccccccssscssscccccccccssscccccccccssscccccccccccccccsssssssssssssssssssssscssscssscssssssscsssssscsssssssssssssssssssssssssssssscsssssssssssssssssssccssssscssssssssccssssscsssssscssssccccssssscsssssssssssssssssscssssscssccssssssssssssssssssssccsscsssssssssssssssssssssssssssscsssssscccs" /><path
       style="fill:#00ff00;stroke:#00ff00;stroke-width:0.4;stroke-linecap:square;stroke-dasharray:none;stroke-opacity:1;fill-opacity:0.0915103"
       d="m 0.16590943,158.39739 -0.0304831,74.54068 53.2074317,15.88569 50.917692,-10.63952 0.31657,-77.52543 -50.977128,-18.45934 z"
       id="path3"
       sodipodi:nodetypes="ccccccc" /><path
       style="fill:#00ff00;stroke:#00ff00;stroke-width:0.4;stroke-linecap:square;stroke-dasharray:none;stroke-opacity:1;fill-opacity:0.0915103"
       d="m 0.51537709,195.8715 -0.03048,74.54068 53.20743191,15.88569 50.917691,-10.63952 0.31657,-77.52543 -50.977127,-18.45934 z"
       id="path3-8"
       sodipodi:nodetypes="ccccccc" /><path
       style="fill:#00ff00;stroke:#00ff00;stroke-width:0.4;stroke-linecap:square;stroke-dasharray:none;stroke-opacity:1;fill-opacity:0.0915103"
       d="m 63.993548,194.98285 -0.03048,74.54068 53.207432,15.88569 50.91769,-10.63952 0.31657,-77.52543 -50.97713,-18.45934 z"
       id="path3-8-7"
       sodipodi:nodetypes="ccccccc" /><path
       style="fill:#00ff00;stroke:#00ff00;stroke-width:0.4;stroke-linecap:square;stroke-dasharray:none;stroke-opacity:1;fill-opacity:0.0915103"
       d="m 130.77506,195.45705 -0.0305,74.54068 53.20743,15.88569 50.91769,-10.63952 0.31657,-77.52543 -50.97713,-18.45934 z"
       id="path3-8-7-0"
       sodipodi:nodetypes="ccccccc" /><path
       style="fill:#00ff00;stroke:#00ff00;stroke-width:0.4;stroke-linecap:square;stroke-dasharray:none;stroke-opacity:1;fill-opacity:0.0915103"
       d="m 64.631606,158.53093 -0.0305,74.54068 53.207434,15.88569 50.91769,-10.63952 0.31657,-77.52543 -50.97713,-18.45934 z"
       id="path3-8-7-0-6"
       sodipodi:nodetypes="ccccccc" /><path
       style="fill:#00ff00;stroke:#00ff00;stroke-width:0.4;stroke-linecap:square;stroke-dasharray:none;stroke-opacity:1;fill-opacity:0.0915103"
       d="m 131.2348,158.82106 -0.0305,74.54068 53.20743,15.88569 50.91769,-10.63952 0.31657,-77.52543 -50.97713,-18.45934 z"
       id="path3-8-7-0-6-8"
       sodipodi:nodetypes="ccccccc" /><path
       style="fill:#000000"
       d="m 143.78943,211.87405 c -16.92882,-4.34325 -52.611772,-13.30743 -56.338527,-14.15321 -3.679496,-0.83505 -9.262485,-1.13912 -12.038714,-0.65566 -4.497271,0.78317 -7.71659,3.07241 -9.59547,6.8233 -1.208042,2.41166 -2.255183,3.25334 -4.04752,3.25334 -1.67618,0 -2.918096,-0.72574 -3.655639,-2.13624 -1.860614,-3.55832 1.828118,-7.92258 8.174114,-9.67106 2.064795,-0.5689 8.237649,-0.63626 11.488217,-0.12536 6.460128,1.01535 17.01141,3.49568 46.547579,10.94212 21.38603,5.39169 30.25334,7.91145 32.48043,8.53399 0.29027,0.0812 -0.094,0.36966 -0.094,0.36966 -0.33639,-0.0481 -6.15377,-1.44481 -12.92049,-3.18088 z"
       id="path1"
       sodipodi:nodetypes="ssssssssssss" /></g></svg>
